<?xml version="1.0" encoding="UTF-8" standalone="no"?>
<svg width="400" height="150" viewBox="0 0 400 150" xmlns="http://www.w3.org/2000/svg">
    <defs>
        <linearGradient id="bridge-modern-gradient" x1="0%" y1="0%" x2="100%" y2="100%">
            <stop offset="0%" stop-color="#9c27b0" />
            <stop offset="33%" stop-color="#673ab7" />
            <stop offset="66%" stop-color="#3f51b5" />
            <stop offset="100%" stop-color="#2196f3" />
        </linearGradient>
        <filter id="glow" x="-20%" y="-20%" width="140%" height="140%">
            <feGaussianBlur stdDeviation="4" result="blur" />
            <feComposite in="SourceGraphic" in2="blur" operator="over" />
        </filter>
    </defs>
    
    <!-- 背景 -->
    <rect x="0" y="0" width="400" height="150" rx="0" fill="#121212" />
    
    <!-- モダンなテキストパスロゴ -->
    <path d="M30,100 V60 M30,80 H60 M60,60 V100 M80,60 V100 M80,60 C80,60 90,60 100,60 C110,60 120,70 120,80 C120,90 110,100 100,100 C90,100 80,100 80,100 M140,60 V100 M140,60 H180 M140,80 H170 M140,100 H180 M200,100 V60 M200,60 H240 C250,60 260,65 260,75 C260,85 250,90 240,90 H200 M240,90 L260,100" stroke="url(#bridge-modern-gradient)" stroke-width="6" fill="none" stroke-linecap="round" stroke-linejoin="round" filter="url(#glow)" />
    
    <!-- アイコンバージョン -->
    <g transform="translate(320, 40)">
        <circle cx="35" cy="35" r="35" fill="url(#bridge-modern-gradient)" />
        <g transform="translate(15, 15) scale(0.7)">
            <path d="M10,45 V15 M10,30 H30 M30,15 V45 M40,15 V45" stroke="white" stroke-width="5" fill="none" stroke-linecap="round" stroke-linejoin="round" />
        </g>
    </g>
</svg> 